<svg width="60" height="74" fill="none" xmlns="http://www.w3.org/2000/svg"><path d="M14.615 71.363V54.15L3.846 38.374m52.308-.001L45.384 54.15v15.777" stroke="#EE5A3F" stroke-width=".7" stroke-miterlimit="10"/><path d="M14.615 38.373L20.77 54.15m4.614-15.777l1.539 15.778m9.231-15.778L33.077 54.15l12.308 11.03m0-27.524L39.23 54.15" stroke="#EE5A3F" stroke-width=".5" stroke-miterlimit="10"/><path d="M45.385 54.15L23.846 72.798l-9.23-7.874 12.307-11.16L45.385 69.93" stroke="#EE5A3F" stroke-width=".5" stroke-miterlimit="10"/><path d="M14.615 54.15l21.539 18.647 9.23-8.606" stroke="#EE5A3F" stroke-width=".5" stroke-miterlimit="10"/><path d="M45.385 69.642l-3.078 3.155L20.77 53.763l-6.154 6.125" stroke="#EE5A3F" stroke-width=".5" stroke-miterlimit="10"/><path d="M45.385 59.63L30 72.797l-14.954-13.34" stroke="#EE5A3F" stroke-width=".5" stroke-miterlimit="10"/><path d="M33.077 53.763L14.615 70.718l3.077 2.08L39.37 53.762l6.016 6.125" stroke="#EE5A3F" stroke-width=".5" stroke-miterlimit="10"/><path d="M47.692 16.858c0 9.108-7.923 16.495-17.692 16.495-5.4 0-10.23-2.252-13.477-5.81-2.63-2.868-4.215-6.612-4.215-10.685C12.308 7.749 20.23.363 30 .363c.4 0 .8.014 1.2.043 4.415.272 8.37 2.05 11.308 4.79 2.8 2.61 4.661 6.096 5.092 9.983.062.545.092 1.105.092 1.679z" fill="#EE5A3F" stroke="#000" stroke-width=".442" stroke-miterlimit="10"/><path d="M47.692 14.706s-15.385 0-16.923-14.343l16.923 14.343z" fill="#EE5A3F"/><path d="M47.692 14.706s-15.385 0-16.923-14.343" stroke="#000" stroke-width=".442" stroke-miterlimit="10"/><path d="M12.308 17.575s16.923 0 16.923 15.778L12.308 17.575z" fill="#EE5A3F"/><path d="M12.308 17.575s16.923 0 16.923 15.778M16.923 5.756L43.2 27.83" stroke="#000" stroke-width=".442" stroke-miterlimit="10"/><path d="M0 37.656h60" stroke="#000" stroke-width="2" stroke-miterlimit="10"/><path d="M16.523 27.544L42.508 5.196" stroke="#000" stroke-width=".442" stroke-miterlimit="10"/></svg>