<svg width="36" height="26" fill="none" xmlns="http://www.w3.org/2000/svg"><path d="M8.687 24.5v-12l-6.282-11m30.512 0l-6.282 11v11" stroke="#EE5A3F" stroke-width=".7" stroke-miterlimit="10"/><path d="M8.687 1.5l3.59 11m2.692-11l.897 11m5.384-11l-1.794 11 7.18 7.69m0-19.19l-3.59 11.5" stroke="#EE5A3F" stroke-width=".5" stroke-miterlimit="10"/><path d="M26.636 12.5l-12.565 13-5.384-5.49 7.18-7.78L26.634 23.5" stroke="#EE5A3F" stroke-width=".5" stroke-miterlimit="10"/><path d="M8.687 12.5l12.564 13 5.384-6" stroke="#EE5A3F" stroke-width=".5" stroke-miterlimit="10"/><path d="M26.636 23.3l-1.795 2.2-12.565-13.27-3.59 4.27" stroke="#EE5A3F" stroke-width=".5" stroke-miterlimit="10"/><path d="M26.636 16.32L17.66 25.5l-8.723-9.3" stroke="#EE5A3F" stroke-width=".5" stroke-miterlimit="10"/><path d="M19.456 12.23L8.686 24.05l1.796 1.45 12.645-13.27 3.509 4.27" stroke="#EE5A3F" stroke-width=".5" stroke-miterlimit="10"/><path d="M.161 1h35" stroke="#000" stroke-width="2" stroke-miterlimit="10"/></svg>