<svg width="36" height="34" fill="none" xmlns="http://www.w3.org/2000/svg"><path d="M35.692 16.858c0 9.108-7.923 16.495-17.692 16.495-5.4 0-10.23-2.252-13.477-5.81C1.893 24.676.308 20.931.308 16.858.308 7.749 8.23.363 18 .363c.4 0 .8.014 1.2.043 4.415.272 8.37 2.05 11.308 4.79 2.8 2.61 4.661 6.096 5.092 9.983.061.546.092 1.105.092 1.679z" fill="#EE5A3F" stroke="#000" stroke-width=".442" stroke-miterlimit="10"/><path d="M35.692 14.706s-15.384 0-16.923-14.343l16.923 14.343z" fill="#EE5A3F"/><path d="M35.692 14.706s-15.384 0-16.923-14.343" stroke="#000" stroke-width=".442" stroke-miterlimit="10"/><path d="M.308 17.575s16.923 0 16.923 15.778L.308 17.575z" fill="#EE5A3F"/><path d="M.308 17.575s16.923 0 16.923 15.778M4.923 5.756L31.2 27.83" stroke="#000" stroke-width=".442" stroke-miterlimit="10"/></svg>