<svg width="33" height="28" fill="none" xmlns="http://www.w3.org/2000/svg"><path d="M4.791 15.554s8.876-8.224 25.36-10.772M6.362 1.528S16.972 7.5 22.77 20.472" stroke="#EE5A3F" stroke-linecap="round" stroke-linejoin="round"/><path d="M1.537 7.183s15.92-1.721 11.266 16.226" stroke="#EE5A3F" stroke-width="1.014" stroke-linecap="round" stroke-linejoin="round"/><path d="M17.696 3.323s.755 6.373 12.455 9.426" stroke="#EE5A3F" stroke-width="1.028" stroke-linecap="round" stroke-linejoin="round"/><path d="M28.859 3.298a7.867 7.867 0 00-11.112-.002l-.002.002-1.514 1.512-1.514-1.512a7.87 7.87 0 00-11.114 0 7.835 7.835 0 000 11.095L16.23 27l11.115-11.095 1.514-1.511a7.834 7.834 0 000-11.096z" stroke="#000" stroke-width="2" stroke-linecap="round" stroke-linejoin="round"/></svg>