<svg width="55" height="46" fill="none" xmlns="http://www.w3.org/2000/svg"><path d="M7.12 25.365S22.682 11.704 51.583 7.47M9.874 2.065s18.602 9.922 28.767 31.468M1.414 11.46S29.327 8.6 21.167 38.413m8.577-33.366s1.324 10.586 21.838 15.658" stroke="#EE5A3F" stroke-width="2.3" stroke-linecap="round" stroke-linejoin="round"/><path d="M49.316 5.006c-5.379-5.088-14.1-5.09-19.481-.003l-.004.003-2.654 2.511-2.654-2.51c-5.381-5.09-14.107-5.09-19.487 0-5.381 5.088-5.381 13.34 0 18.429l22.139 20.941 19.487-18.429 2.654-2.51c5.38-5.087 5.383-13.337.004-18.426 0-.002-.002-.004-.004-.006z" stroke="#EE5A3F" stroke-width="2" stroke-linecap="round" stroke-linejoin="round"/></svg>