<svg width="55" height="46" viewBox="0 0 55 47" fill="none" xmlns="http://www.w3.org/2000/svg"><path d="M7.12 25.95s15.562-14.1 44.463-18.468M9.874 1.904s18.602 10.24 28.767 32.475M1.414 11.6s27.913-2.952 19.753 27.814m8.577-34.432s1.324 10.924 21.838 16.158" stroke="#EE5A3F" stroke-width="2.3" stroke-linecap="round" stroke-linejoin="round"/><path d="M49.316 4.94c-5.379-5.252-14.1-5.254-19.481-.004l-.004.004-2.654 2.59-2.654-2.59c-5.381-5.252-14.107-5.252-19.487 0a13.221 13.221 0 000 19.018L27.175 45.57l19.487-19.019 2.654-2.59a13.218 13.218 0 000-19.021z" stroke="#000" stroke-width="2" stroke-linecap="round" stroke-linejoin="round"/></svg>