<svg width="32" height="32" fill="none" xmlns="http://www.w3.org/2000/svg"><path fill-rule="evenodd" clip-rule="evenodd" d="M16.01.004c2.214 0 4.428-.01 6.642.003 2.083.012 4.04.487 5.735 1.754 2.214 1.653 3.347 3.913 3.558 6.639.074.959.05 1.927.052 2.89.005 3.739.002 7.477.002 11.215 0 1.527-.213 3.017-.859 4.413-1.31 2.832-3.596 4.38-6.612 4.917-.63.112-1.278.154-1.918.156-4.416.013-8.833.01-13.25.005-2.297-.002-4.397-.609-6.187-2.099C1.354 28.383.394 26.404.096 24.082a9.582 9.582 0 01-.084-1.21C.008 18.23-.02 13.588.026 8.945.05 6.408.896 4.16 2.783 2.387 4.35.917 6.253.149 8.37.074c2.544-.09 5.093-.021 7.64-.021v-.05zm-.026 29.039c2.131 0 4.262.008 6.392-.006a9.779 9.779 0 001.67-.13c2.088-.378 3.675-1.425 4.508-3.459.422-1.033.56-2.141.578-3.215.07-4.165.03-8.331.026-12.497 0-.451-.006-.908-.07-1.353-.286-2-1.153-3.639-2.993-4.635-1.027-.557-2.142-.767-3.301-.767-4.464-.001-8.927-.003-13.39.003-.404 0-.81.023-1.21.079-2.273.319-3.948 1.44-4.786 3.643-.338.89-.446 1.822-.446 2.768 0 4.357-.005 8.713.006 13.07 0 .532.04 1.073.136 1.596.423 2.324 1.719 3.921 4.026 4.563.77.214 1.591.309 2.392.325 2.153.043 4.308.015 6.463.015z" fill="#000"/><path fill-rule="evenodd" clip-rule="evenodd" d="M24.247 15.949c-.002 4.555-3.719 8.26-8.275 8.25a8.24 8.24 0 01-8.232-8.252c-.003-4.555 3.708-8.26 8.268-8.256 4.521.005 8.241 3.734 8.24 8.258zm-8.25 5.275c2.906.002 5.3-2.39 5.295-5.291-.005-2.882-2.393-5.274-5.276-5.286-2.902-.011-5.295 2.373-5.3 5.284a5.29 5.29 0 005.28 5.293zm8.556-11.87a1.849 1.849 0 01-1.842-1.87 1.855 1.855 0 011.89-1.86 1.87 1.87 0 011.849 1.872 1.867 1.867 0 01-1.897 1.858z" fill="#000"/></svg>