<svg width="21" height="21" fill="none" xmlns="http://www.w3.org/2000/svg"><path d="M20.04 10.5c0 5.246-4.263 9.5-9.52 9.5a9.5 9.5 0 01-7.252-3.346A9.435 9.435 0 011 10.5C1 5.254 5.263 1 10.52 1c.215 0 .43.008.646.025a9.473 9.473 0 016.084 2.759 9.49 9.49 0 012.79 6.716z" fill="#EE5A3F" stroke="#000" stroke-width=".442" stroke-miterlimit="10"/><path d="M20.04 9.26s-8.278 0-9.106-8.26l9.106 8.26z" fill="#EE5A3F"/><path d="M20.04 9.26s-8.278 0-9.106-8.26" stroke="#000" stroke-width=".442" stroke-miterlimit="10"/><path d="M1 10.913s9.106 0 9.106 9.087L1 10.913z" fill="#EE5A3F"/><path d="M1 10.913s9.106 0 9.106 9.087M3.484 4.106L17.623 16.82m-14.355-.166L17.25 3.784" stroke="#000" stroke-width=".442" stroke-miterlimit="10"/></svg>