<svg width="32" height="32" fill="none" xmlns="http://www.w3.org/2000/svg"><path d="M16 0C7.178 0 0 7.178 0 16c0 8.823 7.178 16 16 16s16-7.177 16-16c0-8.822-7.178-16-16-16zm0 30.422c-7.952 0-14.422-6.47-14.422-14.422C1.578 8.048 8.048 1.578 16 1.578c7.952 0 14.422 6.47 14.422 14.422 0 7.952-6.47 14.422-14.422 14.422z" fill="#000"/><path d="M20.931 6.612h-3.47a.23.23 0 00-.024 0c-3.504.012-3.962 2.458-3.964 4.597a.269.269 0 00-.007.062v1.501h-2.398a.263.263 0 00-.263.263v3.703c0 .145.118.262.263.262h2.398v8.125c0 .146.118.263.263.263h3.5a.263.263 0 00.263-.263v-8.124h3.44a.263.263 0 00.262-.263v-3.703a.263.263 0 00-.263-.263H17.23v-1.99h3.702a.263.263 0 00.263-.263V6.875a.263.263 0 00-.263-.263z" fill="#000"/></svg>