<svg width="36" height="26" viewBox="0 0 36 26" fill="none" xmlns="http://www.w3.org/2000/svg">
<path d="M8.68671 24.5V16.85V12.5L2.40466 1.5" stroke="#EE5A3F" stroke-width="0.7" stroke-miterlimit="10"/>
<path d="M32.9175 1.5L26.6355 12.5V23.5" stroke="#EE5A3F" stroke-width="0.7" stroke-miterlimit="10"/>
<path d="M8.68677 1.5L12.2765 12.5" stroke="#EE5A3F" stroke-width="0.5" stroke-miterlimit="10"/>
<path d="M14.9689 1.5L15.8663 12.5" stroke="#EE5A3F" stroke-width="0.5" stroke-miterlimit="10"/>
<path d="M21.2509 1.5L19.4561 12.5L26.6355 20.19" stroke="#EE5A3F" stroke-width="0.5" stroke-miterlimit="10"/>
<path d="M26.6355 1L23.0458 12.5" stroke="#EE5A3F" stroke-width="0.5" stroke-miterlimit="10"/>
<path d="M26.6355 12.5L14.0714 25.5L8.68677 20.01L15.8663 12.23L26.6355 23.5" stroke="#EE5A3F" stroke-width="0.5" stroke-miterlimit="10"/>
<path d="M8.68677 12.5L21.2509 25.5L26.6355 19.5" stroke="#EE5A3F" stroke-width="0.5" stroke-miterlimit="10"/>
<path d="M26.6355 23.3L24.8406 25.5L12.2765 12.23L8.68677 16.5" stroke="#EE5A3F" stroke-width="0.5" stroke-miterlimit="10"/>
<path d="M26.6355 16.32L17.6612 25.5L8.93811 16.2" stroke="#EE5A3F" stroke-width="0.5" stroke-miterlimit="10"/>
<path d="M19.456 12.23L8.68677 24.05L10.4816 25.5L23.1265 12.23L26.6355 16.5" stroke="#EE5A3F" stroke-width="0.5" stroke-miterlimit="10"/>
<path d="M0.161133 1H35.1611" stroke="black" stroke-width="2" stroke-miterlimit="10"/>
</svg>
