<svg width="36" height="34" viewBox="0 0 36 34" fill="none" xmlns="http://www.w3.org/2000/svg">
<path d="M35.6922 16.8576C35.6922 25.9657 27.7691 33.3526 17.9999 33.3526C12.5999 33.3526 7.76915 31.1007 4.523 27.5435C1.89223 24.6748 0.307617 20.9312 0.307617 16.8576C0.307617 7.74949 8.23069 0.362579 17.9999 0.362579C18.3999 0.362579 18.7999 0.376923 19.1999 0.40561C23.6153 0.678136 27.5691 2.45673 30.5076 5.19634C33.3076 7.80686 35.1691 11.2923 35.5999 15.1794C35.6614 15.7245 35.6922 16.2839 35.6922 16.8576Z" fill="#EE5A3F" stroke="black" stroke-width="0.4423" stroke-miterlimit="10"/>
<path d="M35.6921 14.7061C35.6921 14.7061 20.3075 14.7061 18.769 0.362579L35.6921 14.7061Z" fill="#EE5A3F"/>
<path d="M35.6921 14.7061C35.6921 14.7061 20.3075 14.7061 18.769 0.362579" stroke="black" stroke-width="0.4423" stroke-miterlimit="10"/>
<path d="M0.307617 17.5748C0.307617 17.5748 17.2307 17.5748 17.2307 33.3526L0.307617 17.5748Z" fill="#EE5A3F"/>
<path d="M0.307617 17.5748C0.307617 17.5748 17.2307 17.5748 17.2307 33.3526" stroke="black" stroke-width="0.4423" stroke-miterlimit="10"/>
<path d="M4.92285 5.75572L31.1998 27.8304" stroke="black" stroke-width="0.4423" stroke-miterlimit="10"/>
</svg>
