<svg width="55" height="46" viewBox="0 0 55 47" fill="none" xmlns="http://www.w3.org/2000/svg">
<path d="M7.11963 25.9493C7.11963 25.9493 22.6818 11.8513 51.5831 7.48279" stroke="#EE5A3F" stroke-width="2.3" stroke-linecap="round" stroke-linejoin="round"/>
<path d="M9.87402 1.90436C9.87402 1.90436 28.4759 12.1437 38.6415 34.3785" stroke="#EE5A3F" stroke-width="2.3" stroke-linecap="round" stroke-linejoin="round"/>
<path d="M1.41382 11.5993C1.41382 11.5993 29.3274 8.64848 21.1666 39.4145" stroke="#EE5A3F" stroke-width="2.3" stroke-linecap="round" stroke-linejoin="round"/>
<path d="M29.7439 4.9821C29.7439 4.9821 31.068 15.9062 51.5822 21.1403" stroke="#EE5A3F" stroke-width="2.3" stroke-linecap="round" stroke-linejoin="round"/>
<path d="M49.3161 4.93977C43.9372 -0.311653 35.2157 -0.313577 29.8348 4.93592C29.8329 4.93785 29.8309 4.93977 29.8309 4.93977L27.1769 7.53086L24.5228 4.93977C19.142 -0.311653 10.4165 -0.311653 5.03565 4.93977C-0.345216 10.1912 -0.345216 18.707 5.03565 23.9584L27.1749 45.57L46.6621 26.5514L49.3161 23.9603C54.697 18.7108 54.6989 10.197 49.32 4.94554C49.32 4.94362 49.3181 4.94169 49.3161 4.93977Z" stroke="black" stroke-width="2" stroke-linecap="round" stroke-linejoin="round"/>
</svg>
