<svg width="55" height="46" viewBox="0 0 55 46" fill="none" xmlns="http://www.w3.org/2000/svg">
<path d="M7.11963 25.3648C7.11963 25.3648 22.6819 11.7037 51.5831 7.47058" stroke="#EE5A3F" stroke-width="2.3" stroke-linecap="round" stroke-linejoin="round"/>
<path d="M9.87402 2.06506C9.87402 2.06506 28.4759 11.987 38.6415 33.5328" stroke="#EE5A3F" stroke-width="2.3" stroke-linecap="round" stroke-linejoin="round"/>
<path d="M1.41382 11.4595C1.41382 11.4595 29.3274 8.60016 21.1666 38.4127" stroke="#EE5A3F" stroke-width="2.3" stroke-linecap="round" stroke-linejoin="round"/>
<path d="M29.7441 5.04742C29.7441 5.04742 31.0682 15.633 51.5824 20.7049" stroke="#EE5A3F" stroke-width="2.3" stroke-linecap="round" stroke-linejoin="round"/>
<path d="M49.3161 5.00639C43.9372 -0.0822816 35.2157 -0.084146 29.8348 5.00266C29.8329 5.00453 29.8309 5.00639 29.8309 5.00639L27.1769 7.51717L24.5228 5.00639C19.142 -0.0822816 10.4165 -0.0822816 5.03565 5.00639C-0.345215 10.0951 -0.345215 18.3469 5.03565 23.4356L27.1749 44.3774L46.6621 25.9482L49.3161 23.4374C54.6969 18.3506 54.6989 10.1007 49.32 5.01198C49.32 5.01012 49.3181 5.00825 49.3161 5.00639Z" stroke="#EE5A3F" stroke-width="2" stroke-linecap="round" stroke-linejoin="round"/>
</svg>
