<svg width="33" height="28" viewBox="0 0 33 28" fill="none" xmlns="http://www.w3.org/2000/svg">
<path d="M4.79102 15.5542C4.79102 15.5542 13.6671 7.33011 30.1513 4.78174" stroke="#EE5A3F" stroke-linecap="round" stroke-linejoin="round"/>
<path d="M6.36206 1.52759C6.36206 1.52759 16.9718 7.50071 22.7699 20.4715" stroke="#EE5A3F" stroke-linecap="round" stroke-linejoin="round"/>
<path d="M1.53687 7.18314C1.53687 7.18314 17.4577 5.46179 12.8031 23.4092" stroke="#EE5A3F" stroke-width="1.0142" stroke-linecap="round" stroke-linejoin="round"/>
<path d="M17.6958 3.323C17.6958 3.323 18.451 9.6956 30.1515 12.7489" stroke="#EE5A3F" stroke-width="1.0285" stroke-linecap="round" stroke-linejoin="round"/>
<path d="M28.8587 3.29827C25.7908 0.234845 20.8163 0.233722 17.7473 3.29603C17.7462 3.29715 17.7451 3.29827 17.7451 3.29827L16.2313 4.80979L14.7175 3.29827C11.6485 0.234845 6.67184 0.234845 3.6028 3.29827C0.533766 6.3617 0.533766 11.3294 3.6028 14.3928L16.2302 27L27.3449 15.9055L28.8587 14.3939C31.9277 11.3316 31.9288 6.36507 28.8609 3.30164C28.8609 3.30052 28.8598 3.29939 28.8587 3.29827Z" stroke="black" stroke-width="2" stroke-linecap="round" stroke-linejoin="round"/>
</svg>
