<svg width="32" height="32" viewBox="0 0 32 32" fill="none" xmlns="http://www.w3.org/2000/svg">
<path d="M15.9997 0C7.17757 0 0 7.17757 0 16C0 24.8227 7.17757 32 15.9997 32C24.8222 32 32 24.8227 32 16C31.9997 7.17757 24.8219 0 15.9997 0ZM15.9997 30.4219C8.0476 30.4219 1.57806 23.9524 1.57806 16C1.57806 8.04787 8.0476 1.57807 15.9997 1.57807C23.9519 1.57807 30.4219 8.04787 30.4219 16C30.4217 23.9524 23.9519 30.4219 15.9997 30.4219Z" fill="black"/>
<path d="M20.9314 6.61157H17.4607C17.4525 6.61157 17.4446 6.61183 17.437 6.61262C13.9329 6.62367 13.4753 9.07046 13.4734 11.209C13.4687 11.229 13.4661 11.2495 13.4661 11.2708V12.7721H11.0679C10.9228 12.7721 10.8049 12.8899 10.8049 13.0351V16.7375C10.8049 16.8829 10.9228 17.0005 11.0679 17.0005H13.4661V25.1252C13.4661 25.2706 13.5839 25.3882 13.7291 25.3882H17.229C17.3744 25.3882 17.492 25.2706 17.492 25.1252V17.0008H20.9311C21.0766 17.0008 21.1941 16.8832 21.1941 16.7377V13.0353C21.1941 12.8902 21.0766 12.7723 20.9311 12.7723H17.229V10.7821H20.9311C21.0766 10.7821 21.1941 10.6643 21.1941 10.5191V6.87458C21.1944 6.7294 21.0766 6.61157 20.9314 6.61157Z" fill="black"/>
</svg>
