<svg width="21" height="21" viewBox="0 0 21 21" fill="none" xmlns="http://www.w3.org/2000/svg">
<path d="M20.0401 10.5C20.0401 15.7457 15.7768 20 10.5201 20C7.61438 20 5.01499 18.703 3.26826 16.6543C1.85267 15.0022 1 12.8461 1 10.5C1 5.25435 5.26334 1 10.5201 1C10.7353 1 10.9505 1.00826 11.1658 1.02478C13.5417 1.18174 15.6692 2.20609 17.2503 3.78391C18.757 5.28739 19.7587 7.29478 19.9905 9.53348C20.0236 9.84739 20.0401 10.1696 20.0401 10.5Z" fill="#EE5A3F" stroke="black" stroke-width="0.4423" stroke-miterlimit="10"/>
<path d="M20.0401 9.26087C20.0401 9.26087 11.7618 9.26087 10.934 1L20.0401 9.26087Z" fill="#EE5A3F"/>
<path d="M20.0401 9.26087C20.0401 9.26087 11.7618 9.26087 10.934 1" stroke="black" stroke-width="0.4423" stroke-miterlimit="10"/>
<path d="M1 10.913C1 10.913 10.1062 10.913 10.1062 20L1 10.913Z" fill="#EE5A3F"/>
<path d="M1 10.913C1 10.913 10.1062 10.913 10.1062 20" stroke="black" stroke-width="0.4423" stroke-miterlimit="10"/>
<path d="M3.48352 4.10608L17.6229 16.8196" stroke="black" stroke-width="0.4423" stroke-miterlimit="10"/>
<path d="M3.26819 16.6544L17.2503 3.78394" stroke="black" stroke-width="0.4423" stroke-miterlimit="10"/>
</svg>
