<svg width="32" height="32" viewBox="0 0 32 32" fill="none" xmlns="http://www.w3.org/2000/svg">
<path fill-rule="evenodd" clip-rule="evenodd" d="M16.0095 0.00379571C18.2238 0.00379571 20.4382 -0.00645427 22.6524 0.00673321C24.7355 0.0191707 26.692 0.494232 28.3872 1.76064C30.6009 3.41448 31.7338 5.67357 31.9446 8.39953C32.0189 9.35891 31.9958 10.3266 31.997 11.2905C32.0021 15.0286 31.9993 18.7667 31.9989 22.5049C31.9987 24.0316 31.7864 25.5223 31.1403 26.9184C29.8298 29.7503 27.5437 31.2985 24.5276 31.8351C23.8987 31.9469 23.2499 31.9887 22.6101 31.9906C18.1935 32.0036 13.7767 32.0006 9.36006 31.996C7.06335 31.9937 4.96279 31.3872 3.17276 29.8971C1.35411 28.3834 0.394421 26.4036 0.0958905 24.0824C0.0443906 23.682 0.0128594 23.276 0.0124844 22.8726C0.00817193 18.2297 -0.0198593 13.5866 0.0256406 8.94416C0.0505156 6.40772 0.895077 4.15885 2.78326 2.38682C4.34948 0.917075 6.25326 0.149108 8.36884 0.0739519C10.9127 -0.016423 13.4623 0.0525456 16.0094 0.0525456C16.0095 0.0362644 16.0095 0.0200144 16.0095 0.00379571ZM15.9845 29.0427C18.1151 29.0427 20.2457 29.0513 22.3762 29.0368C22.9334 29.0331 23.4987 29.0054 24.0454 28.9065C26.1337 28.529 27.7214 27.4815 28.5535 25.4481C28.9762 24.4151 29.1143 23.3067 29.1323 22.2332C29.2022 18.0685 29.1628 13.9019 29.1579 9.736C29.1573 9.28469 29.1525 8.82834 29.0886 8.38303C28.8023 6.38341 27.9354 4.74444 26.0951 3.74776C25.068 3.19148 23.9529 2.98145 22.7939 2.98107C18.3304 2.97976 13.867 2.97845 9.40353 2.98379C9.00016 2.98429 8.59322 3.0066 8.1941 3.0627C5.92079 3.38188 4.24632 4.50226 3.40832 6.70644C3.07014 7.59591 2.96207 8.52794 2.96189 9.47422C2.96123 13.8306 2.95704 18.1868 2.9676 22.5432C2.96889 23.0762 3.00864 23.6168 3.10404 24.1405C3.52726 26.4641 4.82291 28.0612 7.13038 28.7033C7.89931 28.9172 8.72128 29.0117 9.52169 29.0278C11.6752 29.0711 13.8301 29.0426 15.9845 29.0427Z" fill="black"/>
<path fill-rule="evenodd" clip-rule="evenodd" d="M24.2473 15.9486C24.2453 20.5041 20.5284 24.2094 15.9717 24.1983C11.4132 24.1873 7.74216 20.5078 7.7395 15.9474C7.73685 11.3921 11.4482 7.68644 16.0083 7.69141C20.5291 7.69629 24.2494 11.4247 24.2473 15.9486ZM15.9966 21.2242C18.903 21.2264 21.2968 18.8343 21.2918 15.9328C21.2868 13.0513 18.899 10.6591 16.0162 10.6474C13.114 10.6356 10.7213 13.0204 10.7152 15.931C10.709 18.8457 13.0798 21.2219 15.9966 21.2242Z" fill="black"/>
<path fill-rule="evenodd" clip-rule="evenodd" d="M24.5533 9.35382C23.5215 9.3446 22.7081 8.51891 22.7114 7.48407C22.7147 6.43748 23.5485 5.61688 24.6012 5.62407C25.6213 5.63113 26.4526 6.47307 26.4495 7.49607C26.4464 8.53357 25.5996 9.36316 24.5533 9.35382Z" fill="black"/>
</svg>
