<svg width="27" height="34" viewBox="0 0 27 34" fill="none" xmlns="http://www.w3.org/2000/svg">
<path d="M26 13.6852C26 23.5515 13.5 32.0084 13.5 32.0084C13.5 32.0084 1 23.5515 1 13.6852C1 10.3209 2.31696 7.09436 4.66116 4.71542C7.00537 2.33648 10.1848 1 13.5 1C16.8152 1 19.9946 2.33648 22.3388 4.71542C24.683 7.09436 26 10.3209 26 13.6852Z" stroke="black" stroke-width="2" stroke-linecap="round" stroke-linejoin="round"/>
<path d="M13.4999 17.9136C15.8011 17.9136 17.6666 16.0205 17.6666 13.6852C17.6666 11.3499 15.8011 9.45679 13.4999 9.45679C11.1987 9.45679 9.33325 11.3499 9.33325 13.6852C9.33325 16.0205 11.1987 17.9136 13.4999 17.9136Z" stroke="black" stroke-width="2" stroke-linecap="round" stroke-linejoin="round"/>
</svg>
